HIERARCHY
ROOT pelvis
{
  OFFSET 0 100 0
  CHANNELS 6 Xposition Yposition Zposition Zrotation Xrotation Yrotation
  JOINT pelvis_right_femur
  {
    OFFSET -10.78128 -3.44521 -0.5502486
    CHANNELS 3 Zrotation Xrotation Yrotation
    JOINT right_femur_tibia
    {
      OFFSET -0.8047443 -44.0398 -0.1307829
      CHANNELS 3 Zrotation Xrotation Yrotation
      JOINT right_tibia_foot
      {
        OFFSET 3.006224 -47.83518 -5
        CHANNELS 3 Zrotation Xrotation Yrotation
        End Site
        {
          OFFSET 0 -5 15
        }
      }
    }
  }
  JOINT pelvis_left_femur
  {
    OFFSET 10.78128 -3.44521 -0.5502486
    CHANNELS 3 Zrotation Xrotation Yrotation
    JOINT left_femur_tibia
    {
      OFFSET 0.8047443 -44.0398 -0.1307829
      CHANNELS 3 Zrotation Xrotation Yrotation
      JOINT left_tibia_foot
      {
        OFFSET -4.370144 -48.10324 -4.275266
        CHANNELS 3 Zrotation Xrotation Yrotation
        End Site
        {
          OFFSET 0 -5 15
        }
      }
    }
  }
  JOINT pelvis_spine1
  {
    OFFSET 0 6.468898 -3.129235
    CHANNELS 3 Zrotation Xrotation Yrotation
    JOINT spine1
    {
      OFFSET 0 23.15396 4.99043
      CHANNELS 3 Zrotation Xrotation Yrotation
      JOINT spine2
      {
        OFFSET 0 20.79997 -5.064912
        CHANNELS 3 Zrotation Xrotation Yrotation
        JOINT neck
        {
          OFFSET 0 14.38658 9.616178
          CHANNELS 3 Zrotation Xrotation Yrotation
          End Site
          {
            OFFSET 0 20 0
          }
        }
      }
      JOINT right_manubrium
      {
        OFFSET -5.722621 16.35077 3.967754
        CHANNELS 3 Zrotation Xrotation Yrotation
        JOINT right_clavicle
        {
          OFFSET -13.16364 1.694482 -4.693211
          CHANNELS 3 Zrotation Xrotation Yrotation
          JOINT right_humerus
          {
            OFFSET -28.5034 -0.3100689 -2.792744
            CHANNELS 3 Zrotation Xrotation Yrotation
            JOINT right_radius
            {
              OFFSET -25.15693 0.02248979 -1.271978
              CHANNELS 3 Zrotation Xrotation Yrotation
              End Site
              {
                OFFSET -15 0 0
              }
            }
          }
        }
      }
      JOINT left_manubrium
      {
        OFFSET 5.722621 16.35077 3.967754
        CHANNELS 3 Zrotation Xrotation Yrotation
        JOINT left_clavicle
        {
          OFFSET 13.16364 1.694482 -4.693211
          CHANNELS 3 Zrotation Xrotation Yrotation
          JOINT left_humerus
          {
            OFFSET 29.39168 -1.063119 -2.237045
            CHANNELS 3 Zrotation Xrotation Yrotation
            JOINT left_radius
            {
              OFFSET 24.59957 -0.9528479 0.9047498
              CHANNELS 3 Zrotation Xrotation Yrotation
              End Site
              {
                OFFSET 15 -0 -0
              }
            }
          }
        }
      }
    }
  }
}
MOTION
Frames: 21
Frame Time: 0.0416666666667
-118.3412 98.21903 2742.676 -0.6876192 4.153883 -21.87641 7.567308 -33.37799 0.741325 -0 8.127157 -0 -8.463988 3.756605 -1.325997 -4.05003 17.8617 -10.94163 -0 29.19617 -0 -6.932589 -17.88252 8.729596 -1.913843 -0.6277059 3.479011 0.5811463 11.06028 -6.626193 0.9935335 21.14844 8.721538 6.202497 -21.30748 8.009246 2.526893 -17.97541 11.4028 89.38494 36.50946 -17.42839 -0 0 11.98161 -18.3951 11.2707 6.166862 8.93618 -24.4588 -4.153004 -85.57144 9.97156 10.99231 0 0 -22.74692 18.31904 12.69931 -13.093
-121.3258 98.66524 2749.211 -1.42843 3.120135 -21.94921 8.60326 -27.61971 2.010061 -0 10.42301 -0 -9.406464 2.352121 -1.449595 -3.485109 15.48776 -9.907232 -0 39.63947 -0 -5.305662 -11.03382 9.131982 -1.518656 -0.4755907 3.606255 0.5838729 11.46039 -6.706645 0.9117963 21.16311 8.519763 5.999995 -21.54347 7.831969 2.062613 -18.31432 11.61223 90.34271 35.39504 -18.09177 -0 0 11.75958 -18.56316 11.03387 6.355701 8.339872 -24.5436 -4.664507 -85.73894 10.18494 11.86202 0 0 -22.43741 17.76435 12.47334 -12.17985
-124.2456 99.68464 2755.418 -2.197665 1.07788 -22.58301 8.900824 -21.07629 2.848594 -0 12.4897 -0 -10.29076 0.2463543 -1.956909 -3.049051 11.74123 -9.06335 -0 51.27625 -0 -4.367608 -5.859702 10.55966 -1.242084 -0.3182723 3.757547 0.5747809 11.82127 -6.772412 0.7863197 21.20944 8.31334 5.920751 -21.57254 7.479652 1.826612 -18.67415 11.82019 90.66586 34.23626 -18.18728 -0 0 12.09129 -18.86049 10.762 6.55435 7.746995 -24.46908 -5.14096 -86.22699 10.29639 13.025 0 0 -20.84807 17.27168 12.35135 -11.45488
-127.075 101.1058 2761.187 -2.799985 -1.801296 -23.60429 8.35326 -14.57249 2.8463 -0 12.96169 -0 -10.68772 -1.37581 -2.787674 -2.850256 6.829489 -7.922403 -0 60.44758 -0 -4.028383 -3.843001 12.53198 -1.066669 -0.2130906 3.983257 0.5230425 12.17412 -6.777846 0.6286997 21.30428 8.064058 5.923802 -21.3632 6.953341 1.678979 -19.13319 12.0145 90.55994 33.02008 -17.83529 -0 0 12.8864 -19.3306 10.44051 6.749024 7.185483 -24.35294 -5.640806 -86.96973 10.23131 14.50983 0 0 -18.38713 16.86391 12.33916 -10.95183
-129.7515 102.6283 2766.509 -3.195407 -4.586497 -24.72889 7.568714 -8.078855 2.530408 -0 12.22901 -0 -10.64176 -2.668457 -3.311227 -2.606877 0.5941175 -6.828637 -0 64.22889 -0 -3.267997 -3.549439 14.49161 -0.9438769 -0.211825 4.337247 0.4254562 12.58621 -6.714781 0.444563 21.43393 7.712536 5.951334 -20.89905 6.231054 1.485461 -19.79702 12.20284 90.23472 31.56703 -17.20272 -0 0 14.08849 -19.98194 10.06005 6.936374 6.632591 -24.31393 -6.251913 -87.93375 9.960177 16.42615 0 0 -15.38263 16.47208 12.39137 -10.54112
-132.2295 103.8688 2771.434 -3.44597 -6.627781 -25.79494 6.897467 -2.051573 2.091886 -0 10.97311 -0 -10.53615 -4.076371 -3.263869 -1.935038 -6.092643 -5.936582 -0 62.29616 -0 -2.089375 -3.626677 16.04846 -0.8362505 -0.3613607 4.902925 0.3282822 13.0925 -6.578216 0.2370313 21.55145 7.198883 5.899074 -20.25623 5.340042 1.191616 -20.81343 12.4202 89.76768 29.78669 -16.33987 -0 0 15.73948 -20.67532 9.643936 7.16749 5.982179 -24.34649 -6.968522 -89.18429 9.557375 19.10699 0 0 -11.94563 15.9281 12.4192 -9.899484
-134.5446 104.4909 2776.07 -3.67716 -7.977986 -26.76019 6.351181 3.38088 1.295639 -0 9.757684 -0 -10.70259 -6.055996 -2.946172 -0.7978863 -12.04725 -5.161396 -0 55.37104 -0 -1.102613 -3.878368 17.45944 -0.7454685 -0.7258614 5.758727 0.2883728 13.65799 -6.364672 0.01713958 21.58189 6.480982 5.64936 -19.49307 4.349033 0.8029004 -22.31101 12.67638 89.15497 27.80517 -15.2301 -0 0 17.91251 -21.18395 9.290493 7.489614 5.18052 -24.4202 -7.682836 -90.72084 9.030597 22.79637 0 0 -8.430483 15.0599 12.3688 -8.708618
-136.7401 104.3967 2780.533 -3.941499 -8.4767 -27.61007 6.069873 8.104681 0.09708247 -0 8.735458 -0 -11.28927 -8.634453 -2.511382 0.643629 -16.72309 -4.412044 -0 44.86679 -0 -0.872967 -4.307249 18.50147 -0.6323437 -1.324507 6.893893 0.3606378 14.26172 -6.157754 -0.2063139 21.41724 5.526947 5.097101 -18.59308 3.30912 0.3298478 -24.3122 12.9548 88.53708 25.70501 -14.07256 -0 0 20.53731 -21.25204 9.164134 7.894565 4.230211 -24.5813 -8.330809 -92.32037 8.314058 27.38388 0 0 -5.736977 13.68246 12.20102 -6.610154
-138.8218 103.7641 2784.999 -4.184764 -7.888499 -28.32644 6.218957 11.54921 -0.7829767 -0 8.00459 -0 -11.72653 -11.0843 -2.002366 2.281771 -19.96441 -3.346155 -0 33.31361 -0 -1.120066 -4.37681 18.40919 -0.3820325 -2.021067 8.105183 0.5486073 14.93383 -6.095158 -0.4019673 20.99943 4.372653 4.171833 -17.62384 2.357996 -0.2569565 -26.61511 13.215 88.30434 23.50842 -13.27671 -0 0 23.1884 -20.73282 9.437444 8.380755 3.139298 -24.81408 -8.928127 -93.54189 7.517287 32.2734 0 0 -4.98378 11.75735 11.88976 -3.378573
-140.8142 102.8941 2789.7 -4.374451 -6.67815 -28.92862 6.562947 13.44093 -0.4578616 -0 8.216023 -0 -11.15314 -12.73956 -1.700521 3.783646 -21.55066 -1.965288 -0 23.55447 -0 -0.834911 -3.577875 17.39412 0.01253777 -2.533062 9.005035 0.7170376 15.56218 -6.144863 -0.4888894 20.48099 3.2743 3.003181 -16.93968 1.824162 -0.9539275 -28.67328 13.35891 88.65171 21.70323 -12.87463 -0 0 25.20407 -19.94493 10.11376 9.033822 2.066951 -24.82974 -9.352926 -94.0323 7.015446 36.32422 0 0 -6.225817 9.826311 11.56144 0.1894812
-142.7793 101.9736 2794.778 -4.486623 -5.820293 -29.49415 6.486721 14.65481 0.5648015 -0 9.98839 -0 -9.957445 -13.8822 -1.835516 4.364894 -21.71043 -1.363662 -0 16.7654 -0 0.2001398 -2.588204 16.76895 0.3338094 -2.696688 9.353429 0.683007 15.83031 -6.055832 -0.4153177 20.18025 2.598645 1.949227 -16.92946 1.941674 -1.664726 -29.93943 13.28737 89.19475 21.11369 -12.32652 -0 0 26.24568 -19.56929 10.84401 9.929519 1.324504 -24.29882 -9.32666 -93.93468 7.09331 38.61931 0 0 -7.890004 8.70024 11.51256 2.511456
-144.7797 101.0624 2800.197 -4.473129 -5.784632 -30.09788 5.574289 16.21005 0.9477158 -0 12.97392 -0 -9.350144 -14.74729 -2.109988 3.584502 -21.03228 -2.542779 -0 12.52365 -0 0.7809255 -2.559679 17.30664 0.425679 -2.613912 9.288511 0.4595691 15.6548 -5.746309 -0.2446892 20.21169 2.423076 1.287244 -17.45224 2.491235 -2.239415 -30.37336 13.04865 89.48876 21.7112 -11.42226 -0 0 26.51251 -19.81102 11.25022 10.89869 1.026014 -23.37922 -8.876661 -93.67123 7.603584 39.29351 0 0 -8.689416 8.483883 11.78472 3.134096
-146.8762 100.2482 2805.873 -4.384282 -6.366611 -30.75232 4.043132 18.06624 0.4022752 -0 16.46688 -0 -9.621095 -14.48578 -2.016078 1.90245 -19.72839 -5.050511 -0 10.49606 -0 0.1372865 -3.579745 18.61791 0.3576356 -2.459201 9.084395 0.2057531 15.29317 -5.38152 -0.07588178 20.41498 2.521539 0.9963895 -18.07408 3.078866 -2.603905 -30.33495 12.79258 89.50519 22.68099 -10.48262 -0 0 26.39848 -20.31185 11.31188 11.67695 1.001046 -22.49883 -8.332912 -93.47996 8.200976 39.1245 0 0 -8.691437 8.695628 12.12219 2.849081
-149.1199 99.67561 2811.765 -4.301625 -7.228885 -31.40796 2.34461 19.64566 -0.5782365 -0 20.46207 -0 -10.47904 -12.16657 -1.282748 -0.03404404 -17.7963 -7.91701 -0 10.43884 -0 -1.277333 -5.066583 20.02751 0.2243772 -2.308851 8.886259 0.00649624 14.93242 -5.076061 0.04241595 20.66535 2.724932 0.9572218 -18.57146 3.531487 -2.772856 -30.08643 12.60247 89.38634 23.59518 -9.766701 -0 0 26.09871 -20.77812 11.15349 12.14435 1.0909 -21.86352 -7.8938 -93.39487 8.700443 38.6462 0 0 -8.30601 9.0327 12.38849 2.251726
-151.5295 99.51078 2817.82 -4.236897 -8.149098 -31.95153 0.7621326 20.2073 -1.53315 -0 25.57217 -0 -11.84477 -7.202733 0.09794778 -1.901443 -15.11928 -10.49576 -0 12.05535 -0 -2.634667 -6.625369 21.09876 0.04907571 -2.15786 8.71648 -0.1333358 14.59734 -4.841177 0.09974649 20.9562 3.013505 1.126912 -18.93495 3.852159 -2.762215 -29.66495 12.49443 89.21359 24.49557 -9.347034 -0 0 25.58262 -21.13388 10.81544 12.2738 1.250754 -21.48547 -7.585897 -93.3951 9.086101 37.96556 0 0 -7.686603 9.481065 12.58357 1.412743
-154.0558 99.91901 2823.903 -4.085724 -8.793718 -32.18815 -0.4498453 18.78395 -2.078576 -0 32.44423 -0 -13.71498 0.3074548 1.897962 -3.517544 -11.80147 -12.19741 -0 14.77276 -0 -3.069725 -8.054546 21.50134 -0.1577725 -1.989452 8.551848 -0.2087524 14.29717 -4.69364 0.0964832 21.28215 3.40341 1.508496 -19.19839 4.060415 -2.556721 -29.0353 12.47788 89.03552 25.41752 -9.293398 -0 0 24.78514 -21.35643 10.325 12.04223 1.484923 -21.3755 -7.411083 -93.44372 9.36385 37.00562 0 0 -6.899947 10.08138 12.70857 0.2785474
-156.556 100.9474 2829.772 -3.694813 -8.740329 -31.92264 -1.0226 14.66668 -2.0419 -0 40.79537 -0 -15.54237 8.437075 3.470528 -4.767424 -8.491324 -12.61319 -0 17.11635 -0 -2.086321 -9.352524 21.11162 -0.3611733 -1.801711 8.348384 -0.197779 14.07196 -4.69064 0.04052138 21.58063 3.885935 2.092146 -19.37403 4.154781 -2.136222 -28.18555 12.55718 88.90257 26.2421 -9.707584 -0 0 23.73105 -21.41542 9.782103 11.44948 1.812935 -21.57183 -7.379313 -93.47066 9.505054 35.6576 0 0 -6.094647 10.82358 12.74621 -1.12135
-158.8611 102.3463 2835.22 -3.282125 -8.224855 -31.18441 -0.9442947 8.404819 -1.684395 -0 48.54751 -0 -15.90645 13.77574 3.777167 -5.527049 -5.60184 -12.06185 -0 17.40352 -0 -0.4045908 -10.73963 20.27042 -0.5203512 -1.611552 8.063387 -0.08961317 13.94589 -4.883373 -0.04859209 21.75931 4.420039 2.827104 -19.44119 4.13369 -1.519479 -27.16063 12.70138 88.8217 26.80989 -10.59484 -0 0 22.57948 -21.30929 9.341161 10.57531 2.262556 -22.06898 -7.468667 -93.38723 9.469528 33.87861 0 0 -5.493761 11.64003 12.6955 -2.652708
-160.9155 103.646 2840.236 -3.328589 -8.17419 -30.22458 -0.622047 1.706387 -1.431064 -0 52.7324 -0 -14.26076 14.39232 2.484858 -5.682182 -2.360882 -11.42952 -0 15.66133 -0 0.549692 -12.29072 19.40407 -0.6399244 -1.447786 7.690464 0.09530454 13.87251 -5.259149 -0.1491624 21.77179 4.964297 3.651764 -19.35483 4.008387 -0.7475227 -26.02703 12.84579 88.68934 27.12301 -11.77603 -0 0 21.53842 -21.08532 9.105271 9.55336 2.868118 -22.78314 -7.597543 -93.15025 9.253363 31.72456 0 0 -5.242275 12.45424 12.59308 -4.173363
-162.8035 104.4735 2844.88 -3.580283 -8.632417 -29.24702 -0.6214388 -4.253741 -1.372731 -0 51.47549 -0 -11.88468 11.03169 0.3598682 -5.500674 2.031024 -11.48519 -0 13.15754 -0 0.1698254 -14.00383 18.62772 -0.7834386 -1.326493 7.227576 0.3226642 13.74999 -5.76048 -0.2412223 21.63967 5.523712 4.554403 -19.09131 3.810808 0.1838189 -24.77468 12.92344 88.32397 27.3633 -13.00138 -0 0 20.70543 -20.81281 9.077343 8.483887 3.689798 -23.60149 -7.64423 -92.75819 8.908535 29.16844 0 0 -5.331851 13.25048 12.49008 -5.672295
-164.6299 104.6802 2849.158 -3.403566 -8.713251 -28.36876 -1.018119 -9.201441 -1.13432 -0 45.19457 -0 -9.726115 5.269005 -1.941219 -5.324135 7.070047 -12.44703 -0 10.76577 -0 -1.109318 -15.93038 17.99636 -1.033588 -1.24411 6.648675 0.5507159 13.47161 -6.313671 -0.2944606 21.41466 6.126847 5.534051 -18.67523 3.609876 1.293369 -23.34538 12.86792 87.56847 27.78126 -14.02735 -0 0 20.06736 -20.56293 9.230437 7.455249 4.793974 -24.39133 -7.474276 -92.18892 8.525439 26.07572 0 0 -5.755344 14.0597 12.43673 -7.222758
